<svg xmlns="http://www.w3.org/2000/svg" version="1.1" xmlns:xlink="http://www.w3.org/1999/xlink" xmlns:svgjs="http://svgjs.dev/svgjs" width="1000" height="1000" viewBox="0 0 1000 1000"><rect width="1000" height="1000" fill="#ffffff"></rect><g transform="matrix(0.7,0,0,0.7,150.0000000000001,106.25)"><svg viewBox="0 0 320 360" data-background-color="#8abe53" preserveAspectRatio="xMidYMid meet" height="1125" width="1000" xmlns="http://www.w3.org/2000/svg" xmlns:xlink="http://www.w3.org/1999/xlink"><g id="tight-bounds" transform="matrix(1,0,0,1,0,0)"><svg viewBox="0 0 320 360" height="360" width="320"><g><svg></svg></g><g><svg viewBox="0 0 320 360" height="360" width="320"><g><path xmlns="http://www.w3.org/2000/svg" d="M20.961 227.22l3.726 4.658-1.863-6.056c-0.466-2.795-3.726 0.466-1.863 1.398M25.153 224.425c1.397 2.329 2.795 4.658 2.795 6.987 0 3.261 2.795 4.658 5.123 5.589-3.261-3.726-5.124-13.974-7.918-12.576M204.017 26.929c7.918 0 15.371-0.932 23.756 0.931 20.495 5.124 37.729 15.371 49.374 29.811l32.606 52.169c1.397 13.042 4.192 27.482 3.726 43.319 3.261 0 2.795-4.658 6.521-5.59-3.726 9.316-5.59 20.961-6.521 34.469-2.329-7.453 0-18.632 0.466-24.687-3.261 5.124-5.124 1.397-5.124-0.932 0.466-3.726-1.397-3.261-2.795-4.658-5.124-4.658-8.384-9.782-12.11-17.7 2.329-6.055 2.795-14.905-4.658-19.563-2.329-1.397-5.124-3.726-6.521-7.453-1.863-5.124-5.124-11.179-4.193-19.097 0.466-2.329-6.987 5.124-11.179 1.863-18.166-12.576-36.332-27.016-58.224-39.127-11.645 0-20.029-4.192-24.221-9.316-3.726-4.658-0.932-10.713 4.658-11.179 3.261 0 6.987-0.932 9.782 0.932 0.466-1.863 2.329-4.192 4.657-4.192M157.904 16.215l0.932 0.466c4.658 0.932 6.987 7.453 12.11 5.124 0 3.261 0.466 6.521-0.466 8.85-1.397 3.726-5.59 3.726-8.85 3.726-31.208-1.863-49.374 11.179-68.471 22.358-5.124 3.261-10.713 5.59-14.906 9.782-20.029 18.632-41.921 35.866-47.045 70.335l-4.192 38.195c-0.466 4.192-5.124 8.384-4.192 13.508l3.26 22.824c-3.261-3.261-5.124 0.932-4.192 2.795 0.466 1.397 2.329 6.055 5.124 1.863 3.726 6.987 7.453 20.495 12.576 26.55 15.837 18.632 36.332 35.4 53.101 52.169 4.192-0.932 7.453-0.932 8.384-3.727 1.397 2.795-1.397 5.59-3.726 6.056 7.453 4.658 15.837 8.85 27.016 9.781 14.44 0.932 27.948 3.261 40.524 6.522 6.521-1.863 13.042-2.795 20.029-3.261 2.329 0 3.726-3.726 6.521-4.658l0.466-4.658c2.795 4.192 2.329-1.397 0.466-4.192 3.261 2.795 4.192 5.124 5.589 6.987 0-1.397 3.726-6.521 3.727-0.466l0.931-6.055c1.397-0.932 1.863 5.124 3.261 0.931 1.397-4.192 4.192-0.932 6.987-2.329-0.932 1.863-0.466 5.59 2.794 3.261l3.727-3.261c2.329 5.59 6.055 3.261 7.918 2.329 20.495-13.042 40.99-28.413 60.553-43.784l-0.466 6.055 2.329-7.453c2.329 2.329 4.192 0.466 5.124-0.931 2.795-4.658 6.521-9.316 12.577-13.508-7.453 20.029-16.303 35.866-27.482 48.908l-4.658 5.59c0 3.261-0.932 7.453-4.658 7.918-1.863 0.466-5.59-0.932-8.384 1.863-1.397 1.863 3.261 5.59-0.466 2.795-3.261-2.329-6.521 0-10.248 0.932-2.795 0.932 1.863 3.726 2.795 5.589 0.932 1.863 1.863 3.726 1.398 6.056l-5.124-5.59c-6.055 3.261-9.782 9.316-14.906 13.974-2.329 1.863-1.397 5.124-1.397 7.918-3.261 0-6.987-0.932-8.85 0.932-1.397 1.863-0.932 4.658-0.932 7.453-4.658-0.466-5.124-7.453-9.315-6.056-4.192 0.932-8.85 1.397-12.577 3.727 2.795 5.59-4.658 2.329-3.726 3.26-6.987-4.192-13.042-7.453-20.495-4.658-15.837-5.124-35.4-2.795-49.84-0.931 0-2.329 0.466-4.658-0.466-5.124-0.932 2.329-3.726 1.397-3.26 1.397-8.85-6.055-17.7-9.782-27.016-14.905-8.384 0.932-16.303-3.261-18.632-5.59-6.521-6.055-13.974-2.795-20.029-4.192-13.042-3.261-17.7-16.769-19.098-26.084-0.932-4.658-4.658-6.521-6.055-6.056-6.055-19.563-15.371-37.263-22.824-55.429-1.863-4.658-1.397-9.316-1.397-14.44 2.329 0.932 4.658 0.466 4.192-2.794-2.329-15.371-7.918-27.016-13.974-38.195 3.261-15.837 3.726-34.469 11.179-48.443 6.521-12.576 18.632-19.098 27.016-29.811 2.795-3.726 2.795-8.85 5.59-12.11 9.316-9.316 18.632-19.098 28.879-27.482 4.658-3.726 10.247 0 17.234-1.397 2.329-8.384 11.645-15.837 20.495-13.508 3.726 0.932 11.179-8.85 13.508-9.782 3.726-1.397 1.863 3.726 1.863 6.987 8.85-6.987 20.961-10.713 32.14-14.906" fill="#000000" fill-rule="nonzero" stroke="none" stroke-width="1" stroke-linecap="butt" stroke-linejoin="miter" stroke-miterlimit="10" stroke-dasharray="" stroke-dashoffset="0" font-family="none" font-weight="none" font-size="none" text-anchor="none" style="mix-blend-mode: normal" data-fill-palette-color="tertiary"></path></g><g transform="matrix(1,0,0,1,64,103.4554234594421)"><svg viewBox="0 0 192 153.0891530811158" height="153.0891530811158" width="192"><g><svg viewBox="0 0 192 153.0891530811158" height="153.0891530811158" width="192"><g><svg viewBox="0 0 192 153.0891530811158" height="153.0891530811158" width="192"><g transform="matrix(1,0,0,1,0,80.64769951449401)"><svg viewBox="0 0 192 72.44145356662179" height="72.44145356662179" width="192"><g id="textblocktransform"><svg viewBox="0 0 192 72.44145356662179" height="72.44145356662179" width="192" id="textblock"><g><svg viewBox="0 0 192 72.44145356662179" height="72.44145356662179" width="192"><g transform="matrix(1,0,0,1,0,0)"><svg width="192" viewBox="3.700000047683716 -36 111.44000244140625 42.04999923706055" height="72.44145356662179" data-palette-color="#ffffff"><path d="M10.9 4.35L10.9 4.35Q8.3 4.35 7.33 3.3 6.35 2.25 6.3 0.6L6.3 0.6Q6.3-0.85 6.88-2.88 7.45-4.9 8.1-6.75L8.1-6.75Q9.15-9.9 10.43-13.3 11.7-16.7 13.05-20.05 14.4-23.4 15.68-26.5 16.95-29.6 18.1-32.15L18.1-32.15Q14.7-32.1 12.28-31.98 9.85-31.85 7.88-31.65 5.9-31.45 3.7-31.05L3.7-31.05Q3.9-33 5.58-34.08 7.25-35.15 10.1-35.58 12.95-36 16.6-36L16.6-36Q19.05-36 21.1-35.85 23.15-35.7 25-35.52 26.85-35.35 28.65-35.25L28.65-35.25Q30.2-34.5 30.7-34.3 31.2-34.1 30.95-34.1L30.95-34.1Q29.75-33.2 28.03-32.77 26.3-32.35 24.45-32.25 22.6-32.15 20.9-32.15L20.9-32.15Q18.75-26.9 16.73-20.63 14.7-14.35 12.85-7.7L12.85-7.7Q12.2-5.2 11.73-3.38 11.25-1.55 11-0.05 10.75 1.45 10.75 3L10.75 3Q10.75 3.25 10.78 3.58 10.8 3.9 10.9 4.35ZM47.4 1.55L47.4 1.55Q45.5 1.55 44.6 0.43 43.7-0.7 43.7-2.25L43.7-2.25Q43.7-3.45 44.05-4.63 44.4-5.8 44.77-6.95 45.15-8.1 45.15-9.05L45.15-9.05Q45.15-9.95 44.77-10.3 44.4-10.65 43.9-10.65L43.9-10.65Q42.7-10.65 41.2-8.83 39.7-7 37.4-3.6L37.4-3.6Q36.6-2.4 35.95-1.1 35.3 0.2 34.75 1.15L34.75 1.15Q34.35 1.15 33.65 1 32.95 0.85 32.42 0.6 31.9 0.35 31.9-0.05L31.9-0.05Q31.9-0.5 32.4-1.8 32.9-3.1 33.55-4.85 34.2-6.6 34.67-8.33 35.15-10.05 35.15-11.25L35.15-11.25Q35.15-12 34.9-12.43 34.65-12.85 34.05-12.85L34.05-12.85Q33-12.85 31.5-11.58 30-10.3 28.35-8.25 26.7-6.2 25.27-3.68 23.85-1.15 22.95 1.35L22.95 1.35Q22.4 1.35 21.65 1.15 20.9 0.95 20.35 0.65 19.8 0.35 19.8 0.1L19.8 0.1Q19.8-0.05 20.2-1.45 20.6-2.85 21.17-4.9 21.75-6.95 22.27-9.1 22.8-11.25 23.1-12.9L23.1-12.9Q23.3-13.35 24.15-13.75 25-14.15 25.7-14.15L25.7-14.15Q26.4-14.15 26.82-13.75 27.25-13.35 27.25-12.65L27.25-12.65Q27.25-12.1 27-10.93 26.75-9.75 26.35-8.35L26.35-8.35Q27.4-9.8 28.6-11.28 29.8-12.75 31.12-13.95 32.45-15.15 33.77-15.88 35.1-16.6 36.4-16.6L36.4-16.6Q38.15-16.6 38.77-15.35 39.4-14.1 39.4-12.55L39.4-12.55Q39.4-11.7 39.22-10.83 39.05-9.95 38.82-9.13 38.6-8.3 38.3-7.5L38.3-7.5Q39.3-9.1 40.47-10.48 41.65-11.85 43-12.68 44.35-13.5 45.9-13.5L45.9-13.5Q47.75-13.5 48.45-12.4 49.15-11.3 49.15-9.95L49.15-9.95Q49.15-8.65 48.72-7.18 48.3-5.7 47.85-4.38 47.4-3.05 47.4-2.1L47.4-2.1Q47.4-1.55 47.67-1.1 47.95-0.65 48.75-0.65L48.75-0.65Q50.1-0.65 51.35-1.9 52.6-3.15 53.65-4.98 54.7-6.8 55.45-8.45L55.45-8.45 56.25-7.55Q55.45-5.45 54.17-3.35 52.9-1.25 51.2 0.15 49.5 1.55 47.4 1.55ZM65.95 6.05L65.95 6.05Q62.09 6.05 59.62 4.55 57.15 3.05 55.97 0.63 54.8-1.8 54.8-4.55L54.8-4.55Q54.8-7.35 55.95-10.08 57.09-12.8 59.22-14.98 61.34-17.15 64.37-18.45 67.4-19.75 71.09-19.75L71.09-19.75Q74.9-19.75 77.37-18.43 79.84-17.1 81.05-15 82.25-12.9 82.25-10.55L82.25-10.55Q82.25-8.7 81.55-6.9 80.84-5.1 79.65-3.6 78.45-2.1 76.82-1.2 75.2-0.3 73.3-0.3L73.3-0.3Q71.75-0.3 70.92-0.98 70.09-1.65 69.9-2.75L69.9-2.75Q69.8-3.1 69.77-3.43 69.75-3.75 69.8-4.1L69.8-4.1Q68.09-2.05 66.5-0.85 64.9 0.35 63.34 0.35L63.34 0.35Q62.05 0.35 61.07-0.53 60.09-1.4 60.09-3.15L60.09-3.15Q60.09-4.9 61.09-7.03 62.09-9.15 63.77-11.08 65.45-13 67.45-14.23 69.45-15.45 71.5-15.45L71.5-15.45Q73.15-15.45 74.3-14.6 75.45-13.75 75.45-12.55L75.45-12.55Q75.45-11.65 75-11.25 74.55-10.85 74-10.73 73.45-10.6 73.05-10.65L73.05-10.65Q73.15-10.9 73.17-11.2 73.2-11.5 73.2-11.75L73.2-11.75Q73.2-12.65 72.9-13.35 72.59-14.05 71.5-14.05L71.5-14.05Q70.09-14.05 68.62-12.88 67.15-11.7 65.95-9.9 64.75-8.1 64-6.25 63.25-4.4 63.25-3.05L63.25-3.05Q63.25-2.25 63.5-1.95 63.75-1.65 64.09-1.65L64.09-1.65Q64.8-1.65 66-2.53 67.2-3.4 68.52-4.78 69.84-6.15 70.97-7.63 72.09-9.1 72.7-10.25L72.7-10.25Q73.25-10.2 73.95-9.85 74.65-9.5 74.65-9.05L74.65-9.05Q74.65-8.5 74.07-7.55 73.5-6.6 72.92-5.53 72.34-4.45 72.34-3.5L72.34-3.5Q72.34-3.1 72.62-2.63 72.9-2.15 73.9-2.15L73.9-2.15Q75.45-2.15 76.87-3.33 78.3-4.5 79.25-6.38 80.2-8.25 80.2-10.25L80.2-10.25Q80.2-12.05 79.27-13.8 78.34-15.55 76.34-16.7 74.34-17.85 71.15-17.85L71.15-17.85Q67.95-17.85 65.34-16.68 62.75-15.5 60.87-13.53 59-11.55 58.02-9.18 57.05-6.8 57.05-4.35L57.05-4.35Q57.05-2.2 57.95-0.2 58.84 1.8 60.9 3.13 62.95 4.45 66.4 4.45L66.4 4.45Q69 4.45 71.77 3.48 74.55 2.5 77.25 0.1L77.25 0.1 77.8 0.8Q75.8 3.05 72.82 4.55 69.84 6.05 65.95 6.05ZM89.79 4.35L89.79 4.35Q88.39 4.35 87.14 3.58 85.89 2.8 85.89 1.6L85.89 1.6Q85.89 1 86.12 0.25 86.34-0.5 86.54-1.15L86.54-1.15Q88.09-5.95 89.47-10.13 90.84-14.3 92.22-18.18 93.59-22.05 95.14-25.95 96.69-29.85 98.59-34.1L98.59-34.1Q96.69-33.75 95.32-33.1 93.94-32.45 93.07-31.95 92.19-31.45 91.84-31.45L91.84-31.45Q91.59-31.45 91.14-31.78 90.69-32.1 90.37-32.5 90.04-32.9 90.04-33.2L90.04-33.2Q91.39-33.8 93.24-34.45 95.09-35.1 97.24-35.55 99.39-36 101.54-36L101.54-36Q103.84-36 106.24-35.38 108.64-34.75 110.67-33.52 112.69-32.3 113.92-30.5 115.14-28.7 115.14-26.25L115.14-26.25Q115.14-23.6 113.97-21.73 112.79-19.85 110.84-18.55 108.89-17.25 106.62-16.45 104.34-15.65 102.09-15.25 99.84-14.85 98.09-14.7 96.34-14.55 95.44-14.55L95.44-14.55 95.09-14.55Q93.64-9.55 92.29-4.6 90.94 0.35 89.79 4.35ZM95.44-15.85L95.44-15.85Q98.24-16.05 101.04-16.8 103.84-17.55 106.14-18.9 108.44-20.25 109.84-22.3 111.24-24.35 111.24-27.05L111.24-27.05Q111.24-29.65 109.94-31.25 108.64-32.85 106.57-33.65 104.49-34.45 102.19-34.5L102.19-34.5Q100.34-30.95 98.67-26.05 96.99-21.15 95.44-15.85Z" opacity="1" transform="matrix(1,0,0,1,0,0)" fill="#000000" class="wordmark-text-0" data-fill-palette-color="primary" id="text-0"></path></svg></g></svg></g></svg></g></svg></g><g transform="matrix(1,0,0,1,51.504,0)"><svg viewBox="0 0 88.992 70.07675284423829" height="70.07675284423829" width="88.992"><g><svg version="1.1" xmlns="http://www.w3.org/2000/svg" xmlns:xlink="http://www.w3.org/1999/xlink" x="0" y="0" viewBox="0 0 100 78.74500274658203" enable-background="new 0 0 100 78.746" xml:space="preserve" width="88.992" height="70.07675284423829" class="icon-icon-0" data-fill-palette-color="accent" id="icon-0"><path fill="#000000" d="M83.379 71.289c0 2.072-0.413 2.486-2.484 2.486H17.103c-2.071 0-2.485-0.414-2.485-2.486V37.618c5.061-1.935 11.036-3.471 17.27-3.471 16.277 0-8.894 27.201 10.069 27.201 9.457 0 14.033-6.627 14.084-6.627 2.641-3.779 2.33-10.771 0-5.799 0 0.051-4.591 9.113-14.084 9.113-11.112 0 11.811-28.249-10.069-28.249-6.277 0-12.236 1.516-17.27 3.433V7.498c0-2.071 0.414-2.485 2.485-2.485h63.792c1.526 0 2.305 0.091 2.453 1.216l4.488-4.487C87.096 0.646 85.645 0 84.188 0L12.96 0.042c-2.072 0-3.314 1.243-3.314 3.314v31.999C3.746 38.186 0 41.038 0 41.038v4.36c0 0 3.766-2.822 9.646-5.641v35.674c0 2.071 1.242 3.314 3.314 3.314h71.248c2.071 0 4.142-2.071 4.142-4.145V32.143l-4.971 4.97V71.289z" data-fill-palette-color="accent"></path><path fill="#000000" d="M61.316 43.271c2.061 2.06 9.504-1.105 9.504-1.105L100 12.993l-7.957-7.955L62.863 34.21C62.863 34.21 59.402 41.359 61.316 43.271z" data-fill-palette-color="accent"></path></svg></g></svg></g><g></g></svg></g></svg></g></svg></g></svg></g><defs></defs></svg><rect width="320" height="360" fill="none" stroke="none" visibility="hidden"></rect></g></svg></g></svg>